<?xml version="1.0" encoding="UTF-8"?>
<svg id="Layer_2" data-name="Layer 2" xmlns="http://www.w3.org/2000/svg" xmlns:xlink="http://www.w3.org/1999/xlink" viewBox="0 0 182.19 53.9">
  <defs>
    <style>
      .cls-1, .cls-2, .cls-3, .cls-4, .cls-5, .cls-6, .cls-7 {
        font-family: Corbel, Corbel;
      }

      .cls-1, .cls-8 {
        letter-spacing: -.04em;
      }

      .cls-2 {
        letter-spacing: -.02em;
      }

      .cls-9, .cls-10, .cls-8, .cls-11 {
        font-family: Corbel-Bold, Corbel;
        font-weight: 700;
      }

      .cls-12 {
        fill: #a6a8ab;
      }

      .cls-3 {
        font-size: 9.32px;
      }

      .cls-10, .cls-5 {
        letter-spacing: 0em;
      }

      .cls-13 {
        fill: #d0d2d3;
      }

      .cls-14 {
        font-size: 5.48px;
      }

      .cls-14, .cls-15 {
        fill: #262261;
      }

      .cls-6 {
        letter-spacing: -.12em;
      }

      .cls-7, .cls-11 {
        font-size: 8.53px;
      }

      .cls-16 {
        fill: url(#linear-gradient);
      }

      .cls-17 {
        fill: #58595b;
      }
    </style>
    <linearGradient id="linear-gradient" x1="165.56" y1="39.48" x2="173.7" y2="39.48" gradientUnits="userSpaceOnUse">
      <stop offset="0" stop-color="#b18e3e"/>
      <stop offset=".33" stop-color="#bfa259"/>
      <stop offset="1" stop-color="#e3d49d"/>
    </linearGradient>
  </defs>
  <g id="Layer_1-2" data-name="Layer 1">
    <g>
      <path class="cls-16" d="M172.34,40.84h-4.37l-2.41-2.72h6.78c.75,0,1.36,.61,1.36,1.36h0c0,.75-.61,1.36-1.36,1.36Z"/>
      <rect class="cls-17" x="0" y=".22" width="36.6" height="2.72" rx="1.36" ry="1.36"/>
      <polygon class="cls-12" points="2.72 22.12 2.72 38.58 36.6 38.58 36.6 41.29 0 41.29 0 10.93 2.72 10.93 2.72 19.4 36.6 19.4 36.6 22.12 2.72 22.12"/>
      <path class="cls-17" d="M49.55,1.58V18.84c0,.36-.14,.71-.4,.96h0c-.86,.86-2.32,.25-2.32-.96V1.58c0-.75,.61-1.36,1.36-1.36h0c.75,0,1.36,.61,1.36,1.36Z"/>
      <path class="cls-17" d="M161.93,38.12l2.41,2.72h-30.42c-.72,0-1.29-.58-1.29-1.29v-.13c0-.72,.58-1.29,1.29-1.29h28.01Z"/>
      <polygon class="cls-13" points="58.73 17.52 58.87 17.67 58.72 17.53 58.73 17.52"/>
      <polygon class="cls-13" points="58.73 17.52 58.87 17.67 58.72 17.53 58.73 17.52"/>
      <polygon class="cls-13" points="49.46 12.39 49.55 12.3 49.55 12.47 49.46 12.39"/>
      <polygon class="cls-13" points="58.87 17.67 58.72 17.53 58.73 17.52 58.87 17.67"/>
      <polygon class="cls-13" points="79.54 41.29 58.65 21.22 58.72 21.16 79.54 41.29"/>
      <polygon class="cls-13" points="49.46 12.39 49.55 12.3 49.55 12.47 49.46 12.39"/>
      <polygon class="cls-13" points="58.73 17.52 58.87 17.67 58.72 17.53 58.73 17.52"/>
      <polygon class="cls-12" points="83.45 41.29 79.54 41.29 58.72 21.16 58.65 21.22 49.55 29.3 49.55 41.29 46.83 41.29 46.83 28.36 49.03 26.41 49.04 26.4 49.55 25.95 56.84 19.49 58.87 17.67 58.88 17.67 78.56 .22 82.33 .22 60.69 19.41 83.45 41.29"/>
      <path class="cls-12" d="M120.75,41.3h-3.84l-2.47-2.47c-3.83,2.17-8.42,3.16-13.27,2.47-9.12-1.3-16.4-8.72-17.54-17.86-.72-5.73,.91-11.08,4.05-15.21l2.07,2.07c-2.2,3.02-3.46,6.75-3.39,10.77,.16,9.31,7.73,17.12,17.03,17.54,3.22,.15,6.26-.56,8.92-1.91h0s-1.86-1.88-1.86-1.88l-2.13-2.13h0c.84-.43,1.63-.91,2.38-1.46l6.06,6.06h-.01l4.01,4.01Z"/>
      <path class="cls-17" d="M124.87,18.68c.58,5.95-1.36,11.45-4.88,15.57-.61,.71-1.7,.74-2.37,.08h0c-.46-.46-.49-1.21-.06-1.7,3.27-3.67,5.05-8.7,4.38-14.13-.99-8.04-7.39-14.45-15.42-15.46-5.37-.68-10.37,1.04-14.03,4.24-.57,.5-1.43,.47-1.97-.06h0c-.59-.59-.56-1.56,.07-2.11C94.71,1.51,100.28-.49,106.3,.1c9.79,.96,17.62,8.79,18.57,18.58Z"/>
      <text class="cls-15" transform="translate(128.12 35.51)"><tspan class="cls-11" x="0" y="0">ENTER</tspan><tspan class="cls-7" x="26.1" y="0">PRISES</tspan><tspan class="cls-3" x="52.21" y="0"> </tspan></text>
      <text class="cls-14" transform="translate(27.15 52.59)"><tspan class="cls-9" x="0" y="0">BUSINESS DEVE</tspan><tspan class="cls-8" x="39.95" y="0">L</tspan><tspan class="cls-10" x="42.68" y="0">OPMENT</tspan><tspan class="cls-5" x="64.74" y="0" xml:space="preserve"> &amp;</tspan><tspan class="cls-1" x="69.5" y="0"> </tspan><tspan class="cls-4" x="70.38" y="0">CONSU</tspan><tspan class="cls-6" x="88.12" y="0">L</tspan><tspan class="cls-4" x="90.31" y="0">TING</tspan><tspan class="cls-2" x="102.16" y="0"> </tspan><tspan class="cls-4" x="103.13" y="0">SERVICES </tspan></text>
    </g>
  </g>
</svg>